<?xml version="1.0" encoding="UTF-8"?>
<svg version="1.1" xmlns="http://www.w3.org/2000/svg" width="140" height="140">
<path d="M0 0 C5.95862397 -0.29825622 11.91284998 -0.51507852 17.87719727 -0.65917969 C19.90205592 -0.71927122 21.92639927 -0.80097997 23.94946289 -0.90527344 C40.24274115 -1.72374888 40.24274115 -1.72374888 44.75265503 1.09570312 C48.04999152 4.19562212 50.0047013 7.99620327 52 12 C52.90536331 13.34058472 53.83254639 14.66704381 54.79296875 15.96875 C55.59354488 17.14420297 56.39170606 18.32130418 57.1875 19.5 C58.12421254 20.874235 59.06175287 22.24790602 60 23.62109375 C60.48597656 24.33249512 60.97195312 25.04389648 61.47265625 25.77685547 C64.184392 29.72395677 66.93702132 33.64234407 69.6875 37.5625 C76.80704849 47.7157743 83.89006609 57.89418948 90.96777344 68.07666016 C94.31061054 72.88530161 97.65536978 77.69260565 101 82.5 C105.02441327 88.28447849 109.04839014 94.06925797 113.0703125 99.85546875 C113.7418335 100.82129883 114.41335449 101.78712891 115.10522461 102.78222656 C116.43977756 104.70186637 117.7739321 106.62178323 119.10766602 108.54199219 C122.41604927 113.30146397 125.73711686 118.05127238 129.08203125 122.78515625 C129.73091309 123.70530518 130.37979492 124.6254541 131.04833984 125.57348633 C132.27857221 127.316448 133.51182104 129.05728573 134.74853516 130.7956543 C135.29429199 131.56949463 135.84004883 132.34333496 136.40234375 133.140625 C136.88179443 133.81641602 137.36124512 134.49220703 137.85522461 135.18847656 C139 137 139 137 140 140 C135.52504203 138.49996727 132.08596114 136.01741292 128.375 133.1875 C122.57660227 128.84755946 116.68449711 124.68577994 110.6875 120.625 C104.32118975 116.30649493 98.03261864 111.9015952 91.8125 107.375 C85.59138373 102.84815954 79.31291494 98.42517998 72.95922852 94.08666992 C68.19245629 90.8290325 63.46227587 87.52344518 58.75 84.1875 C52.57444537 79.81611189 46.38734641 75.46187993 40.1875 71.125 C39.35847168 70.54508301 38.52944336 69.96516602 37.67529297 69.36767578 C35.98101617 68.18269539 34.28667974 66.99780026 32.59228516 65.81298828 C28.18548894 62.73097013 23.78033413 59.64660747 19.375 56.5625 C17.79948669 55.45962467 16.22396611 54.35675973 14.6484375 53.25390625 C13.52332764 52.42475708 13.52332764 52.42475708 12.37548828 51.57885742 C10.01624899 49.90768898 10.01624899 49.90768898 7.21435547 48.8059082 C3.88600383 47.18469784 2.17502622 46.02834782 0 43 C-1.69389515 35.88492216 -0.93340304 28.30298885 -0.625 21.0625 C-0.57480729 19.02289491 -0.52918549 16.98317188 -0.48828125 14.94335938 C-0.378393 9.95931942 -0.20604722 4.98095369 0 0 Z " fill="#FB6D1E" transform="translate(0,0)"/>
<path d="M0 0 C8.25 0 16.5 0 25 0 C25 21.78 25 43.56 25 66 C16.75 66 8.5 66 0 66 C0 44.22 0 22.44 0 0 Z " fill="#FB841E" transform="translate(0,74)"/>
<path d="M0 0 C8.25 0 16.5 0 25 0 C25 21.78 25 43.56 25 66 C16.75 66 8.5 66 0 66 C0 44.22 0 22.44 0 0 Z " fill="#FB841E" transform="translate(115,0)"/>
</svg>
